<svg width="18" height="11" viewBox="0 0 18 11" fill="none" xmlns="http://www.w3.org/2000/svg">
<path d="M17.0108 0.93605L9.04223 8.83652L1.14232 0.867948C0.923665 0.647037 0.567111 0.645911 0.346481 0.864571C0.125851 1.08323 0.124444 1.43979 0.343104 1.66013L8.55876 9.94727C8.66148 10.0508 8.79374 10.1057 8.92798 10.113C8.9671 10.1153 9.00621 10.1127 9.04477 10.1071C9.05996 10.1094 9.0746 10.113 9.08979 10.1133C9.24288 10.1215 9.39907 10.0677 9.51614 9.95121L17.803 1.73499C18.0239 1.51633 18.0253 1.16006 17.8064 0.939146C17.5874 0.718235 17.2312 0.717109 17.0108 0.93605Z" fill="#757575"/>
</svg>
