<svg width="49" height="50" viewBox="0 0 49 50" fill="none" xmlns="http://www.w3.org/2000/svg">
<path d="M24.5003 0.845459C19.723 0.845459 15.0529 2.2621 11.0807 4.91624C7.10853 7.57038 4.01258 11.3428 2.18437 15.7565C0.356169 20.1702 -0.122173 25.0268 0.809838 29.7124C1.74185 34.3979 4.04235 38.7018 7.42043 42.0799C10.7985 45.458 15.1024 47.7585 19.788 48.6905C24.4735 49.6225 29.3302 49.1442 33.7439 47.316C38.1575 45.4878 41.93 42.3918 44.5841 38.4196C47.2383 34.4474 48.6549 29.7774 48.6549 25C48.6549 18.5939 46.11 12.45 41.5802 7.92017C37.0503 3.39031 30.9065 0.845459 24.5003 0.845459ZM3.36504 25C3.36648 19.9214 5.20578 15.0148 8.54318 11.1866L38.3137 40.9572C35.252 43.6011 31.4958 45.3108 27.4912 45.8832C23.4866 46.4557 19.4018 45.8669 15.7219 44.1867C12.042 42.5065 8.92163 39.8055 6.73126 36.4045C4.54089 33.0035 3.37258 29.0454 3.36504 25ZM40.4574 38.8135L10.6869 9.04292C14.7379 5.65816 19.9088 3.91188 25.1825 4.14765C30.4561 4.38343 35.4507 6.58418 39.1834 10.3169C42.9162 14.0497 45.1169 19.0442 45.3527 24.3179C45.5885 29.5915 43.8422 34.7625 40.4574 38.8135Z" fill="#244EB8"/>
</svg>
