<svg width="50" height="50" viewBox="0 0 50 50" fill="none" xmlns="http://www.w3.org/2000/svg">
<g clip-path="url(#clip0_438_15140)">
<path d="M25.0003 0.845703C20.223 0.845703 15.5529 2.26234 11.5807 4.91648C7.60853 7.57063 4.51258 11.3431 2.68437 15.7567C0.856169 20.1704 0.377827 25.0271 1.30984 29.7126C2.24185 34.3981 4.54235 38.7021 7.92043 42.0802C11.2985 45.4582 15.6024 47.7587 20.288 48.6908C24.9735 49.6228 29.8302 49.1444 34.2439 47.3162C38.6575 45.488 42.43 42.3921 45.0841 38.4199C47.7383 34.4477 49.1549 29.7776 49.1549 25.0003C49.1549 18.5941 46.61 12.4503 42.0802 7.92042C37.5503 3.39055 31.4065 0.845703 25.0003 0.845703ZM3.86504 25.0003C3.86648 19.9216 5.70578 15.015 9.04318 11.1869L38.8137 40.9574C35.752 43.6013 31.9958 45.311 27.9912 45.8835C23.9866 46.4559 19.9018 45.8671 16.2219 44.1869C12.542 42.5067 9.42163 39.8058 7.23126 36.4048C5.04089 33.0038 3.87258 29.0456 3.86504 25.0003ZM40.9574 38.8137L11.1869 9.04317C15.2379 5.6584 20.4088 3.91212 25.6825 4.1479C30.9561 4.38367 35.9507 6.58442 39.6834 10.3172C43.4162 14.0499 45.6169 19.0445 45.8527 24.3181C46.0885 29.5918 44.3422 34.7627 40.9574 38.8137Z" fill="#244EB8"/>
</g>
<defs>
<clipPath id="clip0_438_15140">
<rect width="50" height="50" fill="white"/>
</clipPath>
</defs>
</svg>
