<svg width="19" height="21" viewBox="0 0 19 21" fill="none" xmlns="http://www.w3.org/2000/svg">
<path d="M17.3125 2.125H14.9688V1.34375C14.9688 1.13655 14.8864 0.937836 14.7399 0.791323C14.5934 0.64481 14.3947 0.5625 14.1875 0.5625C13.9803 0.5625 13.7816 0.64481 13.6351 0.791323C13.4886 0.937836 13.4062 1.13655 13.4062 1.34375V2.125H5.59375V1.34375C5.59375 1.13655 5.51144 0.937836 5.36493 0.791323C5.21841 0.64481 5.0197 0.5625 4.8125 0.5625C4.6053 0.5625 4.40659 0.64481 4.26007 0.791323C4.11356 0.937836 4.03125 1.13655 4.03125 1.34375V2.125H1.6875C1.2731 2.125 0.875671 2.28962 0.582646 2.58265C0.28962 2.87567 0.125 3.2731 0.125 3.6875V19.3125C0.125 19.7269 0.28962 20.1243 0.582646 20.4174C0.875671 20.7104 1.2731 20.875 1.6875 20.875H17.3125C17.7269 20.875 18.1243 20.7104 18.4174 20.4174C18.7104 20.1243 18.875 19.7269 18.875 19.3125V3.6875C18.875 3.2731 18.7104 2.87567 18.4174 2.58265C18.1243 2.28962 17.7269 2.125 17.3125 2.125ZM4.03125 3.6875V4.46875C4.03125 4.67595 4.11356 4.87466 4.26007 5.02118C4.40659 5.16769 4.6053 5.25 4.8125 5.25C5.0197 5.25 5.21841 5.16769 5.36493 5.02118C5.51144 4.87466 5.59375 4.67595 5.59375 4.46875V3.6875H13.4062V4.46875C13.4062 4.67595 13.4886 4.87466 13.6351 5.02118C13.7816 5.16769 13.9803 5.25 14.1875 5.25C14.3947 5.25 14.5934 5.16769 14.7399 5.02118C14.8864 4.87466 14.9688 4.67595 14.9688 4.46875V3.6875H17.3125V6.8125H1.6875V3.6875H4.03125ZM17.3125 19.3125H1.6875V8.375H17.3125V19.3125Z" fill="#333333"/>
</svg>
