<svg width="19" height="19" viewBox="0 0 19 19" fill="none" xmlns="http://www.w3.org/2000/svg">
<path fill-rule="evenodd" clip-rule="evenodd" d="M4.6043 8.02109C3.5207 8.21797 2.51367 8.74062 1.72383 9.53047C0.701172 10.5531 0.126953 11.9398 0.126953 13.3859V16.5414C0.126953 17.8359 1.17617 18.8852 2.4707 18.8852C5.73945 18.8852 13.2645 18.8852 16.5332 18.8852C17.8277 18.8852 18.877 17.8359 18.877 16.5414V13.3859C18.877 11.9398 18.3027 10.5531 17.2801 9.53047C16.4902 8.74062 15.4832 8.21797 14.3996 8.02109C14.7652 7.2875 14.9707 6.46094 14.9707 5.58594C14.9707 2.56797 12.5199 0.117188 9.50195 0.117188C6.48398 0.117188 4.0332 2.56797 4.0332 5.58594C4.0332 6.46094 4.23867 7.2875 4.6043 8.02109ZM14.1848 9.57109V11.1953C15.0941 11.5172 15.7473 12.3859 15.7473 13.4062C15.7473 14.2664 15.7504 14.9648 15.7504 14.9648C15.7527 15.3961 15.4043 15.7477 14.973 15.75C14.5418 15.7516 14.1902 15.4031 14.1879 14.9727C14.1879 14.9727 14.1848 14.2703 14.1848 13.4062C14.1848 12.975 13.8363 12.625 13.4059 12.625C12.9754 12.625 12.627 12.975 12.627 13.4062L12.6254 14.9695C12.6246 15.4008 12.2746 15.7508 11.8434 15.75C11.4121 15.7492 11.0621 15.3992 11.0629 14.968C11.0629 14.968 11.0645 13.4055 11.0645 13.4062C11.0645 12.3875 11.7152 11.5203 12.6223 11.1969V10.0773C11.7371 10.6938 10.6613 11.0547 9.50195 11.0547C8.33867 11.0547 7.25898 10.6906 6.37227 10.0703V11.1961C7.28242 11.518 7.93477 12.3867 7.93477 13.4062C7.93477 14.7 6.88477 15.75 5.59102 15.75C4.29727 15.75 3.24727 14.7 3.24727 13.4062C3.24727 12.3867 3.89961 11.518 4.80977 11.1961V9.57266C4.06445 9.72344 3.37461 10.0898 2.8293 10.6352C2.09961 11.3648 1.68945 12.3547 1.68945 13.3859V16.5414C1.68945 16.9727 2.03945 17.3227 2.4707 17.3227H16.5332C16.9645 17.3227 17.3145 16.9727 17.3145 16.5414V13.3859C17.3145 12.3547 16.9043 11.3648 16.1754 10.6352C15.6277 10.0875 14.9332 9.72031 14.1848 9.57109ZM5.59102 12.625C6.02227 12.625 6.37227 12.975 6.37227 13.4062C6.37227 13.8375 6.02227 14.1875 5.59102 14.1875C5.15977 14.1875 4.80977 13.8375 4.80977 13.4062C4.80977 12.975 5.15977 12.625 5.59102 12.625ZM9.50195 1.67969C11.6582 1.67969 13.4082 3.43047 13.4082 5.58594C13.4082 7.74219 11.6582 9.49219 9.50195 9.49219C7.3457 9.49219 5.5957 7.74219 5.5957 5.58594C5.5957 3.43047 7.3457 1.67969 9.50195 1.67969Z" fill="#333333"/>
</svg>
