<svg width="20" height="20" viewBox="0 0 20 20" fill="none" xmlns="http://www.w3.org/2000/svg">
<path d="M18.0108 5.93602L10.0422 13.8365L2.1423 5.86792C1.92364 5.64701 1.56709 5.64588 1.34646 5.86454C1.12583 6.0832 1.12442 6.43975 1.34308 6.6601L9.55874 14.9472C9.66146 15.0508 9.79372 15.1057 9.92796 15.113C9.96707 15.1152 10.0062 15.1127 10.0447 15.1071C10.0599 15.1093 10.0746 15.113 10.0898 15.1133C10.2429 15.1214 10.399 15.0677 10.5161 14.9512L18.803 6.73496C19.0239 6.5163 19.0253 6.16003 18.8063 5.93912C18.5874 5.7182 18.2311 5.71708 18.0108 5.93602Z" fill="#757575"/>
</svg>
