<svg width="14" height="19" viewBox="0 0 14 19" fill="none" xmlns="http://www.w3.org/2000/svg">
<path d="M1.99998 18.334C1.54165 18.334 1.14942 18.1709 0.823313 17.8448C0.496646 17.5182 0.333313 17.1257 0.333313 16.6673V8.33398C0.333313 7.87565 0.496646 7.48315 0.823313 7.15648C1.14942 6.83037 1.54165 6.66732 1.99998 6.66732H2.83331V5.00065C2.83331 3.84787 3.2397 2.8651 4.05248 2.05232C4.8647 1.2401 5.8472 0.833984 6.99998 0.833984C8.15276 0.833984 9.13554 1.2401 9.94831 2.05232C10.7605 2.8651 11.1666 3.84787 11.1666 5.00065V6.66732H12C12.4583 6.66732 12.8508 6.83037 13.1775 7.15648C13.5036 7.48315 13.6666 7.87565 13.6666 8.33398V16.6673C13.6666 17.1257 13.5036 17.5182 13.1775 17.8448C12.8508 18.1709 12.4583 18.334 12 18.334H1.99998ZM6.99998 14.1673C7.45831 14.1673 7.85081 14.0043 8.17748 13.6782C8.50359 13.3515 8.66665 12.959 8.66665 12.5007C8.66665 12.0423 8.50359 11.6498 8.17748 11.3232C7.85081 10.997 7.45831 10.834 6.99998 10.834C6.54165 10.834 6.14942 10.997 5.82331 11.3232C5.49665 11.6498 5.33331 12.0423 5.33331 12.5007C5.33331 12.959 5.49665 13.3515 5.82331 13.6782C6.14942 14.0043 6.54165 14.1673 6.99998 14.1673ZM4.49998 6.66732H9.49998V5.00065C9.49998 4.30621 9.25692 3.71593 8.77081 3.22982C8.2847 2.74371 7.69442 2.50065 6.99998 2.50065C6.30554 2.50065 5.71526 2.74371 5.22915 3.22982C4.74304 3.71593 4.49998 4.30621 4.49998 5.00065V6.66732Z" fill="#231F20"/>
</svg>
