<svg width="124" height="111" viewBox="0 0 124 111" fill="none" xmlns="http://www.w3.org/2000/svg">
<path d="M0.959961 0.966797H5.84316V5.32945H0.959961V0.966797ZM5.84316 0.966797H10.7264V5.32945H5.84316V0.966797ZM10.7264 0.966797H15.6096V5.32945H10.7264V0.966797ZM15.6096 0.966797H20.4928V5.32945H15.6096V0.966797ZM20.4928 0.966797H25.376V5.32945H20.4928V0.966797ZM25.376 0.966797H30.2592V5.32945H25.376V0.966797ZM30.2592 0.966797H35.1424V5.32945H30.2592V0.966797ZM49.792 0.966797H54.6752V5.32945H49.792V0.966797ZM74.208 0.966797H79.0912V5.32945H74.208V0.966797ZM79.0912 0.966797H83.9744V5.32945H79.0912V0.966797ZM88.8576 0.966797H93.7408V5.32945H88.8576V0.966797ZM93.7408 0.966797H98.624V5.32945H93.7408V0.966797ZM98.624 0.966797H103.507V5.32945H98.624V0.966797ZM103.507 0.966797H108.39V5.32945H103.507V0.966797ZM108.39 0.966797H113.274V5.32945H108.39V0.966797ZM113.274 0.966797H118.157V5.32945H113.274V0.966797ZM118.157 0.966797H123.04V5.32945H118.157V0.966797ZM0.959961 5.32945H5.84316V9.6921H0.959961V5.32945ZM30.2592 5.32945H35.1424V9.6921H30.2592V5.32945ZM40.0256 5.32945H44.9088V9.6921H40.0256V5.32945ZM44.9088 5.32945H49.792V9.6921H44.9088V5.32945ZM49.792 5.32945H54.6752V9.6921H49.792V5.32945ZM54.6752 5.32945H59.5584V9.6921H54.6752V5.32945ZM59.5584 5.32945H64.4416V9.6921H59.5584V5.32945ZM69.3248 5.32945H74.208V9.6921H69.3248V5.32945ZM74.208 5.32945H79.0912V9.6921H74.208V5.32945ZM88.8576 5.32945H93.7408V9.6921H88.8576V5.32945ZM118.157 5.32945H123.04V9.6921H118.157V5.32945ZM0.959961 9.6921H5.84316V14.0548H0.959961V9.6921ZM10.7264 9.6921H15.6096V14.0548H10.7264V9.6921ZM15.6096 9.6921H20.4928V14.0548H15.6096V9.6921ZM20.4928 9.6921H25.376V14.0548H20.4928V9.6921ZM30.2592 9.6921H35.1424V14.0548H30.2592V9.6921ZM40.0256 9.6921H44.9088V14.0548H40.0256V9.6921ZM44.9088 9.6921H49.792V14.0548H44.9088V9.6921ZM49.792 9.6921H54.6752V14.0548H49.792V9.6921ZM54.6752 9.6921H59.5584V14.0548H54.6752V9.6921ZM64.4416 9.6921H69.3248V14.0548H64.4416V9.6921ZM69.3248 9.6921H74.208V14.0548H69.3248V9.6921ZM74.208 9.6921H79.0912V14.0548H74.208V9.6921ZM88.8576 9.6921H93.7408V14.0548H88.8576V9.6921ZM98.624 9.6921H103.507V14.0548H98.624V9.6921ZM103.507 9.6921H108.39V14.0548H103.507V9.6921ZM108.39 9.6921H113.274V14.0548H108.39V9.6921ZM118.157 9.6921H123.04V14.0548H118.157V9.6921ZM0.959961 14.0548H5.84316V18.4174H0.959961V14.0548ZM10.7264 14.0548H15.6096V18.4174H10.7264V14.0548ZM15.6096 14.0548H20.4928V18.4174H15.6096V14.0548ZM20.4928 14.0548H25.376V18.4174H20.4928V14.0548ZM30.2592 14.0548H35.1424V18.4174H30.2592V14.0548ZM54.6752 14.0548H59.5584V18.4174H54.6752V14.0548ZM59.5584 14.0548H64.4416V18.4174H59.5584V14.0548ZM88.8576 14.0548H93.7408V18.4174H88.8576V14.0548ZM98.624 14.0548H103.507V18.4174H98.624V14.0548ZM103.507 14.0548H108.39V18.4174H103.507V14.0548ZM108.39 14.0548H113.274V18.4174H108.39V14.0548ZM118.157 14.0548H123.04V18.4174H118.157V14.0548ZM0.959961 18.4174H5.84316V22.7801H0.959961V18.4174ZM10.7264 18.4174H15.6096V22.7801H10.7264V18.4174ZM15.6096 18.4174H20.4928V22.7801H15.6096V18.4174ZM20.4928 18.4174H25.376V22.7801H20.4928V18.4174ZM30.2592 18.4174H35.1424V22.7801H30.2592V18.4174ZM44.9088 18.4174H49.792V22.7801H44.9088V18.4174ZM59.5584 18.4174H64.4416V22.7801H59.5584V18.4174ZM64.4416 18.4174H69.3248V22.7801H64.4416V18.4174ZM88.8576 18.4174H93.7408V22.7801H88.8576V18.4174ZM98.624 18.4174H103.507V22.7801H98.624V18.4174ZM103.507 18.4174H108.39V22.7801H103.507V18.4174ZM108.39 18.4174H113.274V22.7801H108.39V18.4174ZM118.157 18.4174H123.04V22.7801H118.157V18.4174ZM0.959961 22.7801H5.84316V27.1427H0.959961V22.7801ZM30.2592 22.7801H35.1424V27.1427H30.2592V22.7801ZM49.792 22.7801H54.6752V27.1427H49.792V22.7801ZM54.6752 22.7801H59.5584V27.1427H54.6752V22.7801ZM69.3248 22.7801H74.208V27.1427H69.3248V22.7801ZM88.8576 22.7801H93.7408V27.1427H88.8576V22.7801ZM118.157 22.7801H123.04V27.1427H118.157V22.7801ZM0.959961 27.1427H5.84316V31.5054H0.959961V27.1427ZM5.84316 27.1427H10.7264V31.5054H5.84316V27.1427ZM10.7264 27.1427H15.6096V31.5054H10.7264V27.1427ZM15.6096 27.1427H20.4928V31.5054H15.6096V27.1427ZM20.4928 27.1427H25.376V31.5054H20.4928V27.1427ZM25.376 27.1427H30.2592V31.5054H25.376V27.1427ZM30.2592 27.1427H35.1424V31.5054H30.2592V27.1427ZM40.0256 27.1427H44.9088V31.5054H40.0256V27.1427ZM49.792 27.1427H54.6752V31.5054H49.792V27.1427ZM59.5584 27.1427H64.4416V31.5054H59.5584V27.1427ZM69.3248 27.1427H74.208V31.5054H69.3248V27.1427ZM79.0912 27.1427H83.9744V31.5054H79.0912V27.1427ZM88.8576 27.1427H93.7408V31.5054H88.8576V27.1427ZM93.7408 27.1427H98.624V31.5054H93.7408V27.1427ZM98.624 27.1427H103.507V31.5054H98.624V27.1427ZM103.507 27.1427H108.39V31.5054H103.507V27.1427ZM108.39 27.1427H113.274V31.5054H108.39V27.1427ZM113.274 27.1427H118.157V31.5054H113.274V27.1427ZM118.157 27.1427H123.04V31.5054H118.157V27.1427ZM49.792 31.5054H54.6752V35.868H49.792V31.5054ZM64.4416 31.5054H69.3248V35.868H64.4416V31.5054ZM69.3248 31.5054H74.208V35.868H69.3248V31.5054ZM79.0912 31.5054H83.9744V35.868H79.0912V31.5054ZM5.84316 35.868H10.7264V40.2307H5.84316V35.868ZM10.7264 35.868H15.6096V40.2307H10.7264V35.868ZM15.6096 35.868H20.4928V40.2307H15.6096V35.868ZM25.376 35.868H30.2592V40.2307H25.376V35.868ZM30.2592 35.868H35.1424V40.2307H30.2592V35.868ZM54.6752 35.868H59.5584V40.2307H54.6752V35.868ZM64.4416 35.868H69.3248V40.2307H64.4416V35.868ZM69.3248 35.868H74.208V40.2307H69.3248V35.868ZM74.208 35.868H79.0912V40.2307H74.208V35.868ZM79.0912 35.868H83.9744V40.2307H79.0912V35.868ZM108.39 35.868H113.274V40.2307H108.39V35.868ZM113.274 35.868H118.157V40.2307H113.274V35.868ZM0.959961 40.2307H5.84316V44.5933H0.959961V40.2307ZM10.7264 40.2307H15.6096V44.5933H10.7264V40.2307ZM20.4928 40.2307H25.376V44.5933H20.4928V40.2307ZM35.1424 40.2307H40.0256V44.5933H35.1424V40.2307ZM40.0256 40.2307H44.9088V44.5933H40.0256V40.2307ZM49.792 40.2307H54.6752V44.5933H49.792V40.2307ZM54.6752 40.2307H59.5584V44.5933H54.6752V40.2307ZM59.5584 40.2307H64.4416V44.5933H59.5584V40.2307ZM79.0912 40.2307H83.9744V44.5933H79.0912V40.2307ZM83.9744 40.2307H88.8576V44.5933H83.9744V40.2307ZM113.274 40.2307H118.157V44.5933H113.274V40.2307ZM15.6096 44.5933H20.4928V48.956H15.6096V44.5933ZM20.4928 44.5933H25.376V48.956H20.4928V44.5933ZM30.2592 44.5933H35.1424V48.956H30.2592V44.5933ZM35.1424 44.5933H40.0256V48.956H35.1424V44.5933ZM59.5584 44.5933H64.4416V48.956H59.5584V44.5933ZM69.3248 44.5933H74.208V48.956H69.3248V44.5933ZM79.0912 44.5933H83.9744V48.956H79.0912V44.5933ZM83.9744 44.5933H88.8576V48.956H83.9744V44.5933ZM93.7408 44.5933H98.624V48.956H93.7408V44.5933ZM98.624 44.5933H103.507V48.956H98.624V44.5933ZM5.84316 48.956H10.7264V53.3186H5.84316V48.956ZM15.6096 48.956H20.4928V53.3186H15.6096V48.956ZM59.5584 48.956H64.4416V53.3186H59.5584V48.956ZM64.4416 48.956H69.3248V53.3186H64.4416V48.956ZM69.3248 48.956H74.208V53.3186H69.3248V48.956ZM74.208 48.956H79.0912V53.3186H74.208V48.956ZM83.9744 48.956H88.8576V53.3186H83.9744V48.956ZM93.7408 48.956H98.624V53.3186H93.7408V48.956ZM103.507 48.956H108.39V53.3186H103.507V48.956ZM108.39 48.956H113.274V53.3186H108.39V48.956ZM0.959961 53.3186H5.84316V57.6813H0.959961V53.3186ZM10.7264 53.3186H15.6096V57.6813H10.7264V53.3186ZM15.6096 53.3186H20.4928V57.6813H15.6096V53.3186ZM25.376 53.3186H30.2592V57.6813H25.376V53.3186ZM30.2592 53.3186H35.1424V57.6813H30.2592V53.3186ZM35.1424 53.3186H40.0256V57.6813H35.1424V53.3186ZM40.0256 53.3186H44.9088V57.6813H40.0256V53.3186ZM49.792 53.3186H54.6752V57.6813H49.792V53.3186ZM54.6752 53.3186H59.5584V57.6813H54.6752V53.3186ZM59.5584 53.3186H64.4416V57.6813H59.5584V53.3186ZM88.8576 53.3186H93.7408V57.6813H88.8576V53.3186ZM93.7408 53.3186H98.624V57.6813H93.7408V53.3186ZM98.624 53.3186H103.507V57.6813H98.624V53.3186ZM108.39 53.3186H113.274V57.6813H108.39V53.3186ZM113.274 53.3186H118.157V57.6813H113.274V53.3186ZM118.157 53.3186H123.04V57.6813H118.157V53.3186ZM10.7264 57.6813H15.6096V62.0439H10.7264V57.6813ZM15.6096 57.6813H20.4928V62.0439H15.6096V57.6813ZM25.376 57.6813H30.2592V62.0439H25.376V57.6813ZM40.0256 57.6813H44.9088V62.0439H40.0256V57.6813ZM49.792 57.6813H54.6752V62.0439H49.792V57.6813ZM54.6752 57.6813H59.5584V62.0439H54.6752V57.6813ZM64.4416 57.6813H69.3248V62.0439H64.4416V57.6813ZM74.208 57.6813H79.0912V62.0439H74.208V57.6813ZM79.0912 57.6813H83.9744V62.0439H79.0912V57.6813ZM88.8576 57.6813H93.7408V62.0439H88.8576V57.6813ZM98.624 57.6813H103.507V62.0439H98.624V57.6813ZM118.157 57.6813H123.04V62.0439H118.157V57.6813ZM5.84316 62.0439H10.7264V66.4066H5.84316V62.0439ZM10.7264 62.0439H15.6096V66.4066H10.7264V62.0439ZM15.6096 62.0439H20.4928V66.4066H15.6096V62.0439ZM20.4928 62.0439H25.376V66.4066H20.4928V62.0439ZM30.2592 62.0439H35.1424V66.4066H30.2592V62.0439ZM40.0256 62.0439H44.9088V66.4066H40.0256V62.0439ZM54.6752 62.0439H59.5584V66.4066H54.6752V62.0439ZM59.5584 62.0439H64.4416V66.4066H59.5584V62.0439ZM98.624 62.0439H103.507V66.4066H98.624V62.0439ZM108.39 62.0439H113.274V66.4066H108.39V62.0439ZM113.274 62.0439H118.157V66.4066H113.274V62.0439ZM0.959961 66.4066H5.84316V70.7693H0.959961V66.4066ZM10.7264 66.4066H15.6096V70.7693H10.7264V66.4066ZM15.6096 66.4066H20.4928V70.7693H15.6096V66.4066ZM20.4928 66.4066H25.376V70.7693H20.4928V66.4066ZM35.1424 66.4066H40.0256V70.7693H35.1424V66.4066ZM54.6752 66.4066H59.5584V70.7693H54.6752V66.4066ZM69.3248 66.4066H74.208V70.7693H69.3248V66.4066ZM83.9744 66.4066H88.8576V70.7693H83.9744V66.4066ZM88.8576 66.4066H93.7408V70.7693H88.8576V66.4066ZM93.7408 66.4066H98.624V70.7693H93.7408V66.4066ZM98.624 66.4066H103.507V70.7693H98.624V66.4066ZM118.157 66.4066H123.04V70.7693H118.157V66.4066ZM10.7264 70.7693H15.6096V75.1319H10.7264V70.7693ZM25.376 70.7693H30.2592V75.1319H25.376V70.7693ZM30.2592 70.7693H35.1424V75.1319H30.2592V70.7693ZM35.1424 70.7693H40.0256V75.1319H35.1424V70.7693ZM40.0256 70.7693H44.9088V75.1319H40.0256V70.7693ZM44.9088 70.7693H49.792V75.1319H44.9088V70.7693ZM54.6752 70.7693H59.5584V75.1319H54.6752V70.7693ZM64.4416 70.7693H69.3248V75.1319H64.4416V70.7693ZM69.3248 70.7693H74.208V75.1319H69.3248V70.7693ZM79.0912 70.7693H83.9744V75.1319H79.0912V70.7693ZM83.9744 70.7693H88.8576V75.1319H83.9744V70.7693ZM88.8576 70.7693H93.7408V75.1319H88.8576V70.7693ZM93.7408 70.7693H98.624V75.1319H93.7408V70.7693ZM98.624 70.7693H103.507V75.1319H98.624V70.7693ZM103.507 70.7693H108.39V75.1319H103.507V70.7693ZM108.39 70.7693H113.274V75.1319H108.39V70.7693ZM113.274 70.7693H118.157V75.1319H113.274V70.7693ZM118.157 70.7693H123.04V75.1319H118.157V70.7693ZM40.0256 75.1319H44.9088V79.4946H40.0256V75.1319ZM44.9088 75.1319H49.792V79.4946H44.9088V75.1319ZM59.5584 75.1319H64.4416V79.4946H59.5584V75.1319ZM79.0912 75.1319H83.9744V79.4946H79.0912V75.1319ZM98.624 75.1319H103.507V79.4946H98.624V75.1319ZM108.39 75.1319H113.274V79.4946H108.39V75.1319ZM118.157 75.1319H123.04V79.4946H118.157V75.1319ZM0.959961 79.4946H5.84316V83.8572H0.959961V79.4946ZM5.84316 79.4946H10.7264V83.8572H5.84316V79.4946ZM10.7264 79.4946H15.6096V83.8572H10.7264V79.4946ZM15.6096 79.4946H20.4928V83.8572H15.6096V79.4946ZM20.4928 79.4946H25.376V83.8572H20.4928V79.4946ZM25.376 79.4946H30.2592V83.8572H25.376V79.4946ZM30.2592 79.4946H35.1424V83.8572H30.2592V79.4946ZM49.792 79.4946H54.6752V83.8572H49.792V79.4946ZM69.3248 79.4946H74.208V83.8572H69.3248V79.4946ZM79.0912 79.4946H83.9744V83.8572H79.0912V79.4946ZM88.8576 79.4946H93.7408V83.8572H88.8576V79.4946ZM98.624 79.4946H103.507V83.8572H98.624V79.4946ZM108.39 79.4946H113.274V83.8572H108.39V79.4946ZM113.274 79.4946H118.157V83.8572H113.274V79.4946ZM118.157 79.4946H123.04V83.8572H118.157V79.4946ZM0.959961 83.8572H5.84316V88.2199H0.959961V83.8572ZM30.2592 83.8572H35.1424V88.2199H30.2592V83.8572ZM40.0256 83.8572H44.9088V88.2199H40.0256V83.8572ZM44.9088 83.8572H49.792V88.2199H44.9088V83.8572ZM49.792 83.8572H54.6752V88.2199H49.792V83.8572ZM54.6752 83.8572H59.5584V88.2199H54.6752V83.8572ZM59.5584 83.8572H64.4416V88.2199H59.5584V83.8572ZM64.4416 83.8572H69.3248V88.2199H64.4416V83.8572ZM69.3248 83.8572H74.208V88.2199H69.3248V83.8572ZM74.208 83.8572H79.0912V88.2199H74.208V83.8572ZM79.0912 83.8572H83.9744V88.2199H79.0912V83.8572ZM98.624 83.8572H103.507V88.2199H98.624V83.8572ZM113.274 83.8572H118.157V88.2199H113.274V83.8572ZM0.959961 88.2199H5.84316V92.5825H0.959961V88.2199ZM10.7264 88.2199H15.6096V92.5825H10.7264V88.2199ZM15.6096 88.2199H20.4928V92.5825H15.6096V88.2199ZM20.4928 88.2199H25.376V92.5825H20.4928V88.2199ZM30.2592 88.2199H35.1424V92.5825H30.2592V88.2199ZM44.9088 88.2199H49.792V92.5825H44.9088V88.2199ZM49.792 88.2199H54.6752V92.5825H49.792V88.2199ZM54.6752 88.2199H59.5584V92.5825H54.6752V88.2199ZM69.3248 88.2199H74.208V92.5825H69.3248V88.2199ZM79.0912 88.2199H83.9744V92.5825H79.0912V88.2199ZM83.9744 88.2199H88.8576V92.5825H83.9744V88.2199ZM88.8576 88.2199H93.7408V92.5825H88.8576V88.2199ZM93.7408 88.2199H98.624V92.5825H93.7408V88.2199ZM98.624 88.2199H103.507V92.5825H98.624V88.2199ZM103.507 88.2199H108.39V92.5825H103.507V88.2199ZM0.959961 92.5825H5.84316V96.9452H0.959961V92.5825ZM10.7264 92.5825H15.6096V96.9452H10.7264V92.5825ZM15.6096 92.5825H20.4928V96.9452H15.6096V92.5825ZM20.4928 92.5825H25.376V96.9452H20.4928V92.5825ZM30.2592 92.5825H35.1424V96.9452H30.2592V92.5825ZM40.0256 92.5825H44.9088V96.9452H40.0256V92.5825ZM49.792 92.5825H54.6752V96.9452H49.792V92.5825ZM54.6752 92.5825H59.5584V96.9452H54.6752V92.5825ZM59.5584 92.5825H64.4416V96.9452H59.5584V92.5825ZM74.208 92.5825H79.0912V96.9452H74.208V92.5825ZM79.0912 92.5825H83.9744V96.9452H79.0912V92.5825ZM88.8576 92.5825H93.7408V96.9452H88.8576V92.5825ZM98.624 92.5825H103.507V96.9452H98.624V92.5825ZM103.507 92.5825H108.39V96.9452H103.507V92.5825ZM108.39 92.5825H113.274V96.9452H108.39V92.5825ZM113.274 92.5825H118.157V96.9452H113.274V92.5825ZM118.157 92.5825H123.04V96.9452H118.157V92.5825ZM0.959961 96.9452H5.84316V101.308H0.959961V96.9452ZM10.7264 96.9452H15.6096V101.308H10.7264V96.9452ZM15.6096 96.9452H20.4928V101.308H15.6096V96.9452ZM20.4928 96.9452H25.376V101.308H20.4928V96.9452ZM30.2592 96.9452H35.1424V101.308H30.2592V96.9452ZM40.0256 96.9452H44.9088V101.308H40.0256V96.9452ZM44.9088 96.9452H49.792V101.308H44.9088V96.9452ZM54.6752 96.9452H59.5584V101.308H54.6752V96.9452ZM59.5584 96.9452H64.4416V101.308H59.5584V96.9452ZM64.4416 96.9452H69.3248V101.308H64.4416V96.9452ZM69.3248 96.9452H74.208V101.308H69.3248V96.9452ZM74.208 96.9452H79.0912V101.308H74.208V96.9452ZM79.0912 96.9452H83.9744V101.308H79.0912V96.9452ZM88.8576 96.9452H93.7408V101.308H88.8576V96.9452ZM98.624 96.9452H103.507V101.308H98.624V96.9452ZM108.39 96.9452H113.274V101.308H108.39V96.9452ZM113.274 96.9452H118.157V101.308H113.274V96.9452ZM0.959961 101.308H5.84316V105.67H0.959961V101.308ZM30.2592 101.308H35.1424V105.67H30.2592V101.308ZM40.0256 101.308H44.9088V105.67H40.0256V101.308ZM54.6752 101.308H59.5584V105.67H54.6752V101.308ZM59.5584 101.308H64.4416V105.67H59.5584V101.308ZM98.624 101.308H103.507V105.67H98.624V101.308ZM108.39 101.308H113.274V105.67H108.39V101.308ZM0.959961 105.67H5.84316V110.033H0.959961V105.67ZM5.84316 105.67H10.7264V110.033H5.84316V105.67ZM10.7264 105.67H15.6096V110.033H10.7264V105.67ZM15.6096 105.67H20.4928V110.033H15.6096V105.67ZM20.4928 105.67H25.376V110.033H20.4928V105.67ZM25.376 105.67H30.2592V110.033H25.376V105.67ZM30.2592 105.67H35.1424V110.033H30.2592V105.67ZM49.792 105.67H54.6752V110.033H49.792V105.67ZM59.5584 105.67H64.4416V110.033H59.5584V105.67ZM69.3248 105.67H74.208V110.033H69.3248V105.67ZM74.208 105.67H79.0912V110.033H74.208V105.67ZM83.9744 105.67H88.8576V110.033H83.9744V105.67ZM88.8576 105.67H93.7408V110.033H88.8576V105.67ZM93.7408 105.67H98.624V110.033H93.7408V105.67ZM98.624 105.67H103.507V110.033H98.624V105.67ZM103.507 105.67H108.39V110.033H103.507V105.67ZM108.39 105.67H113.274V110.033H108.39V105.67ZM113.274 105.67H118.157V110.033H113.274V105.67ZM118.157 105.67H123.04V110.033H118.157V105.67Z" fill="#333333"/>
</svg>
