<svg width="50" height="50" viewBox="0 0 50 50" fill="none" xmlns="http://www.w3.org/2000/svg">
<path d="M25.0001 49.2553C38.2455 49.2553 49.2558 38.2689 49.2558 24.9997C49.2558 11.7543 38.2218 0.744141 24.9764 0.744141C11.7071 0.744141 0.744629 11.7543 0.744629 24.9997C0.744629 38.2689 11.7309 49.2553 25.0001 49.2553ZM25.0001 45.2127C13.776 45.2127 4.81088 36.2238 4.81088 24.9997C4.81088 13.7993 13.7522 4.78675 24.9764 4.78675C36.1766 4.78675 45.1892 13.7993 45.2132 24.9997C45.237 36.2238 36.2005 45.2127 25.0001 45.2127ZM24.5007 29.9222C25.6897 29.9222 26.427 29.185 26.427 28.2338V27.9485C26.427 26.6167 27.1879 25.7844 28.8525 24.6906C31.1591 23.1686 32.7999 21.7656 32.7999 18.9358C32.7999 14.9646 29.2805 12.8481 25.2379 12.8481C21.1477 12.8481 18.4606 14.7744 17.8186 16.9621C17.6997 17.3664 17.6046 17.7469 17.6046 18.1511C17.6046 19.1974 18.4606 19.7919 19.2453 19.7919C20.6009 19.7919 20.8148 19.0547 21.5758 18.1748C22.3605 16.867 23.502 16.0822 25.0952 16.0822C27.2592 16.0822 28.6622 17.2951 28.6622 19.126C28.6622 20.7431 27.6635 21.5278 25.5946 22.9547C23.8824 24.1437 22.5983 25.4039 22.5983 27.7344V28.0435C22.5983 29.3039 23.288 29.9222 24.5007 29.9222ZM24.4532 37.0324C25.8324 37.0324 27.0214 35.9384 27.0214 34.5593C27.0214 33.1562 25.8561 32.0862 24.4532 32.0862C23.0501 32.0862 21.8849 33.18 21.8849 34.5593C21.8849 35.9147 23.0739 37.0324 24.4532 37.0324Z" fill="#244EB8"/>
</svg>
