<svg width="25" height="26" viewBox="0 0 25 26" fill="none" xmlns="http://www.w3.org/2000/svg">
<rect width="25" height="25" transform="translate(0 0.5)" fill="white"/>
<path d="M10.9375 18.4688H17.1875V20.0312H10.9375V18.4688ZM7.8125 18.4688H9.375V20.0312H7.8125V18.4688ZM10.9375 14.5625H17.1875V16.125H10.9375V14.5625ZM7.8125 14.5625H9.375V16.125H7.8125V14.5625ZM10.9375 10.6562H17.1875V12.2188H10.9375V10.6562ZM7.8125 10.6562H9.375V12.2188H7.8125V10.6562Z" fill="#333333"/>
<path d="M19.5312 4.40625H17.1875V3.625C17.1875 3.2106 17.0229 2.81317 16.7299 2.52015C16.4368 2.22712 16.0394 2.0625 15.625 2.0625H9.375C8.9606 2.0625 8.56317 2.22712 8.27015 2.52015C7.97712 2.81317 7.8125 3.2106 7.8125 3.625V4.40625H5.46875C5.05435 4.40625 4.65692 4.57087 4.3639 4.8639C4.07087 5.15692 3.90625 5.55435 3.90625 5.96875V22.375C3.90625 22.7894 4.07087 23.1868 4.3639 23.4799C4.65692 23.7729 5.05435 23.9375 5.46875 23.9375H19.5312C19.9457 23.9375 20.3431 23.7729 20.6361 23.4799C20.9291 23.1868 21.0938 22.7894 21.0938 22.375V5.96875C21.0938 5.55435 20.9291 5.15692 20.6361 4.8639C20.3431 4.57087 19.9457 4.40625 19.5312 4.40625V4.40625ZM9.375 3.625H15.625V6.75H9.375V3.625ZM19.5312 22.375H5.46875V5.96875H7.8125V8.3125H17.1875V5.96875H19.5312V22.375Z" fill="#333333"/>
</svg>
