<svg width="50" height="50" viewBox="0 0 50 50" fill="none" xmlns="http://www.w3.org/2000/svg">
<path d="M24.9995 0C11.2141 0 0 11.215 0 25C0 38.785 11.2141 50 24.9995 50C38.7849 50 50 38.785 50 25C50 11.215 38.7849 0 24.9995 0ZM24.9995 46.7212C13.0225 46.7212 3.27875 36.977 3.27875 25C3.27875 13.0229 13.0224 3.27888 24.9995 3.27888C36.9766 3.27888 46.7209 13.023 46.7209 25C46.721 36.977 36.9765 46.7212 24.9995 46.7212Z" fill="#244EB8"/>
<path d="M34.0505 16.8158L21.1591 29.7066L15.948 24.4966C15.3076 23.857 14.2703 23.8566 13.6299 24.497C12.9893 25.1376 12.9893 26.1751 13.6299 26.8155L20.0003 33.1848C20.3204 33.5046 20.7398 33.6646 21.1591 33.6646C21.5785 33.6646 21.999 33.5046 22.319 33.1843C22.32 33.183 22.3208 33.1816 22.3224 33.18L36.3685 19.134C37.0091 18.494 37.0091 17.4557 36.3685 16.8157C35.7283 16.1753 34.6901 16.1753 34.0505 16.8158Z" fill="#244EB8"/>
</svg>
